<?xml version="1.0" encoding="utf-8"?>
<!-- Generator: Adobe Illustrator 19.2.1, SVG Export Plug-In . SVG Version: 6.00 Build 0)  -->
<svg version="1.1" xmlns="http://www.w3.org/2000/svg" xmlns:xlink="http://www.w3.org/1999/xlink" x="0px" y="0px"
	 viewBox="0 0 109 148" style="enable-background:new 0 0 109 148;" xml:space="preserve">
<style type="text/css">
	.st0{fill:#66609E;}
	.st1{fill:#FFFFFF;}
	.st2{fill:#2A216A;}
	.st3{fill:#E13718;}
	.st4{fill:#365AA5;}
	.st5{fill:#999632;}
	.st6{fill:#46743C;}
	.st7{fill:#901A1E;}
</style>
<g id="TEO">
</g>
<g id="SUND">
	<g>
		<path class="st2" d="M107,39.8c0,21.9-17.8,39.8-39.7,39.8c-22,0-39.7-17.8-39.7-39.8C27.6,17.8,45.3,0,67.3,0
			C89.2,0,107,17.8,107,39.8"/>
		<path class="st2" d="M37.7,97.8c0,10.4-8.4,18.8-18.8,18.8C8.5,116.6,0,108.2,0,97.8c0-10.4,8.5-18.8,18.9-18.8
			C29.3,78.9,37.7,87.4,37.7,97.8"/>
		<path class="st2" d="M77.1,138.2c0,5.4-4.4,9.8-9.8,9.8c-5.4,0-9.8-4.4-9.8-9.8c0-5.4,4.4-9.8,9.8-9.8
			C72.7,128.3,77.1,132.7,77.1,138.2"/>
		<g>
			<path class="st1" d="M84.4,58.6c0.1,0,0.2,0.1,0.2,0.2c0,0-0.1,0.1-0.1,0.1c-0.2,0.2-0.2,0.3,0.2,0.7c0.2,0.3,0.7,0.8,0.9,1
				c0.2,0.2,0.4,0.5,0.7,0.3c0.1,0,0.1-0.1,0.1-0.1c0.1,0,0.2,0.1,0.2,0.2c-0.4,0.4-0.9,0.8-1.2,1.1c-0.1,0-0.2-0.1-0.2-0.2
				c0,0,0.1-0.1,0.1-0.1c0.2-0.2,0.1-0.5-0.1-0.7c-0.3-0.4-0.7-0.8-0.9-1c-0.3-0.4-0.4-0.4-0.7-0.3c0,0-0.1,0.1-0.1,0.1
				c-0.1,0-0.2-0.1-0.2-0.2C83.7,59.2,84.1,58.9,84.4,58.6 M69.9,65.1c-0.4,0-1,0.1-1.6,0.1c-0.1,0.1,0,0.2,0,0.3c0.1,0,0.1,0,0.2,0
				c0.3,0,0.3,0.2,0.4,0.6c0,0.3,0.1,0.8,0.1,1.3c0,0.3,0,0.6-0.3,0.7c0,0-0.1,0-0.1,0c-0.1,0.1-0.1,0.2,0,0.3
				c0.4,0,1.1-0.1,1.6-0.1c0-0.1,0-0.2,0-0.3c-0.1,0-0.1,0-0.2,0c-0.3,0-0.3-0.3-0.4-0.6c0-0.3-0.1-0.9-0.1-1.3
				c-0.1-0.6,0-0.6,0.3-0.7c0,0,0.1,0,0.2,0C70,65.3,69.9,65.2,69.9,65.1 M44.9,52.3c-0.2-0.4-0.5-0.8-0.7-1.4
				c-0.1,0-0.2,0.1-0.3,0.1c0,0.1,0.1,0.1,0.1,0.2c0.1,0.3,0,0.4-0.4,0.6c-0.2,0.1-0.7,0.4-1.2,0.6c-0.3,0.2-0.6,0.3-0.7,0
				c0,0,0-0.1-0.1-0.1c-0.1,0-0.2,0-0.2,0.1c0.2,0.4,0.5,0.9,0.8,1.5c0.1,0,0.2-0.1,0.2-0.1c0-0.1,0-0.1-0.1-0.1
				c-0.1-0.3,0.2-0.5,0.4-0.6c0.2-0.1,0.8-0.5,1.2-0.6c0.5-0.3,0.6-0.2,0.8,0c0,0,0.1,0.1,0.1,0.1C44.7,52.4,44.9,52.4,44.9,52.3
				 M41.9,36c0.1-0.4,0.1-0.9,0.3-1.6c0-0.1-0.2-0.1-0.3-0.1c0,0.1,0,0.1-0.1,0.2c-0.1,0.3-0.2,0.3-0.7,0.2
				c-0.3-0.1-0.8-0.2-1.3-0.2c-0.3-0.1-0.6-0.1-0.6-0.5c0,0,0-0.1,0-0.1c0-0.1-0.2-0.1-0.3-0.1c-0.1,0.4-0.2,1-0.3,1.6
				c0,0.1,0.2,0.1,0.3,0c0,0,0-0.1,0-0.1c0.1-0.3,0.4-0.2,0.7-0.2c0.3,0,0.9,0.2,1.3,0.2c0.6,0.1,0.6,0.2,0.6,0.5c0,0.1,0,0.1,0,0.2
				C41.6,36,41.8,36,41.9,36 M92.7,39.7c0,0.5,0,1,0,1.6c0.1,0.1,0.2,0.1,0.3,0c0-0.1,0-0.1,0-0.2c0.1-0.3,0.2-0.3,0.7-0.3
				c0.3,0,0.8,0,1.3,0c0.3,0,0.6,0,0.6,0.4c0,0,0,0.1,0,0.1c0,0.1,0.2,0.1,0.3,0c0-0.4,0-1.1,0-1.6c0-0.1-0.2-0.1-0.3,0
				c0,0.1,0,0.1,0,0.2c0,0.4-0.4,0.3-0.7,0.3c-0.3,0-1,0-1.3,0c-0.6,0-0.6-0.1-0.7-0.4c0,0,0-0.1,0-0.2
				C92.9,39.6,92.8,39.6,92.7,39.7 M87.2,55.8c0,0-0.4,0.1-0.9,0.6c-0.5,0.5-0.5,1.2-0.1,1.6c0.5,0.4,1,0.2,1.4,0
				c0.5-0.2,0.7-0.3,0.9-0.1c0.1,0.1,0.3,0.4,0,0.8c-0.4,0.4-0.8,0.1-0.9,0.1c-0.1,0-0.2,0.1-0.2,0.2c0.1,0.1,0.5,0.4,0.6,0.5
				c0.1-0.1,0.4-0.3,0.7-0.6c0.7-0.8,0.2-1.4-0.1-1.6c-0.3-0.1-0.6-0.2-1.2,0.1c-0.5,0.2-0.8,0.3-1,0c-0.2-0.2-0.2-0.4,0-0.8
				c0.4-0.5,0.8-0.2,1.1-0.1c0.1-0.1,0.2-0.2,0.2-0.3C87.7,56.1,87.5,55.9,87.2,55.8 M66.4,65.4c0,0-0.3-0.2-1-0.3
				c-0.7-0.1-1.2,0.3-1.2,0.9c0,0.6,0.5,0.9,0.9,1.1c0.5,0.2,0.7,0.4,0.7,0.6c0,0.2-0.1,0.5-0.7,0.5c-0.6-0.1-0.6-0.6-0.6-0.6
				c-0.1-0.1-0.2-0.1-0.3,0c0,0.2,0,0.7,0,0.8c0.2,0,0.4,0.1,0.9,0.2c1.1,0.1,1.2-0.7,1.2-1c0-0.3-0.2-0.5-0.9-0.9
				c-0.5-0.2-0.7-0.4-0.6-0.8c0-0.2,0.2-0.4,0.6-0.4c0.6,0,0.7,0.5,0.8,0.8c0.1,0,0.3,0,0.3,0C66.5,66,66.5,65.8,66.4,65.4
				 M41.5,39.9c0,0,0.2-0.3,0.3-1c0-0.7-0.4-1.2-1-1.2c-0.6,0-0.9,0.5-1.1,0.9c-0.2,0.5-0.4,0.7-0.6,0.7c-0.2,0-0.5-0.1-0.5-0.6
				c0-0.6,0.6-0.6,0.6-0.6c0.1-0.1,0.1-0.2,0-0.3c-0.2,0-0.7,0-0.8,0.1c0,0.2-0.1,0.4-0.1,0.9c-0.1,1.1,0.7,1.2,1.1,1.1
				c0.3-0.1,0.5-0.2,0.9-0.9c0.2-0.5,0.4-0.7,0.8-0.7c0.2,0,0.5,0.2,0.4,0.6c0,0.6-0.5,0.7-0.8,0.8c0,0.1,0,0.2,0,0.3
				C40.9,40,41.1,40,41.5,39.9 M42.5,32.6c0,0,0.3-0.3,0.5-0.9c0.2-0.7-0.1-1.3-0.6-1.4c-0.6-0.2-1,0.2-1.3,0.6
				c-0.3,0.4-0.5,0.6-0.8,0.5c-0.2,0-0.5-0.2-0.3-0.7c0.2-0.6,0.7-0.4,0.8-0.4c0.1-0.1,0.1-0.2,0.1-0.3c-0.2-0.1-0.7-0.2-0.8-0.1
				c-0.1,0.1-0.2,0.4-0.4,0.9c-0.3,1,0.4,1.4,0.8,1.4c0.3,0,0.6-0.1,1.1-0.6c0.3-0.4,0.6-0.6,0.9-0.4c0.2,0.1,0.4,0.3,0.3,0.7
				c-0.2,0.6-0.7,0.6-1,0.6c-0.1,0.1-0.1,0.2-0.1,0.3C41.8,32.5,42.1,32.6,42.5,32.6 M91.9,31.4c0.9-0.7,0.9-0.8,1.6-1.3
				c0.2-0.2,0.3-0.3,0.5,0c0,0.1,0,0.1,0.1,0.1c0.1,0,0.2,0,0.3-0.1c-0.2-0.5-0.3-0.9-0.6-1.5c-0.1,0-0.2,0-0.3,0.1
				c0,0,0,0.1,0.1,0.2c0.1,0.3,0,0.4-0.3,0.6c-0.2,0.1-2,1.7-2.1,1.7c0,0,0,0.1,0,0.1c0,0,0.2,0.3,0.3,0.4c0.8,0,2.1,0.1,2.6,0.2
				c0.5,0,0.6,0.1,0.6,0.3c0,0.1,0,0.1,0,0.2c0.1,0,0.2,0,0.3-0.1c-0.1-0.4-0.2-0.9-0.4-1.2c-0.1-0.1-0.2,0-0.3,0.1c0,0,0,0.1,0,0.1
				c0,0.2,0,0.3-0.4,0.3C93.4,31.5,92.6,31.5,91.9,31.4 M92.8,44.7c1.1-0.2,1.2-0.2,2-0.3c0.3,0,0.4-0.1,0.4,0.2c0,0.1,0,0.1,0,0.1
				c0.1,0.1,0.2,0.1,0.3,0c0.1-0.5,0.2-1,0.2-1.5c-0.1-0.1-0.2-0.1-0.3,0c0,0.1,0,0.1,0,0.2c-0.1,0.2-0.2,0.3-0.6,0.4
				c-0.2,0-2.6,0.4-2.7,0.5c-0.1,0-0.1,0.1-0.1,0.1c0,0,0.1,0.4,0.1,0.5c0.7,0.4,1.8,1.1,2.2,1.4c0.4,0.3,0.5,0.4,0.4,0.5
				c0,0.1,0,0.1,0,0.2c0,0.1,0.2,0.1,0.3,0.1c0.1-0.4,0.2-0.9,0.3-1.3c0-0.1-0.2-0.1-0.3-0.1c0,0,0,0.1,0,0.1
				c-0.1,0.2-0.1,0.3-0.5,0.1C94,45.4,93.4,45,92.8,44.7 M91.9,53.9c-0.1,0.2-0.2,0.3-0.3,0.5c-0.1,0.1-0.2,0.3-0.4,0.3
				c-0.2,0-0.4,0-0.5-0.1c-0.1-0.1-0.2-0.1-0.3-0.3c-0.1-0.2,0-0.4,0.1-0.6l-0.1-0.1c-0.3,0-1.6,0.2-1.9,0.3
				c-0.2,0.3-0.5,0.7-0.5,0.8c0,0.1,0.1,0.2,0.2,0.2c0-0.1,0.1-0.1,0.1-0.1c0.2-0.2,0.3-0.2,0.6-0.3c0.4-0.1,0.8-0.1,1.1-0.1
				c-0.1,0.4-0.1,0.8,0.3,1c0.6,0.4,1.1,0,1.3-0.3c0.1-0.1,0.2-0.3,0.3-0.4c0.1-0.1,0.3-0.6,0.8-1.4c0-0.1-0.2-0.2-0.2-0.1
				c0,0,0,0.1-0.1,0.1c-0.2,0.3-0.2,0.2-0.7,0c-0.2-0.1-0.9-0.5-1.2-0.6c-0.5-0.3-0.5-0.3-0.4-0.6c0,0,0-0.1,0.1-0.1
				c0-0.1-0.2-0.1-0.2-0.1c-0.2,0.4-0.5,0.9-0.7,1.3c0,0.1,0.2,0.2,0.2,0.1c0,0,0.1-0.1,0.1-0.1c0.2-0.2,0.3-0.2,0.7,0
				C90.4,53.1,91.3,53.6,91.9,53.9 M77.5,63.1c0.1-0.1,0.7-0.3,1-0.5c0.1,0,0.2,0.2,0.1,0.2c0,0-0.1,0-0.1,0.1
				c-0.1,0.1-0.2,0.2-0.2,0.7c0,0.5,0,2.4,0,2.6c-0.1,0.1-0.3,0.3-0.3,0.3c0,0,0,0-0.1,0c0,0-1.7-1.8-1.8-2
				c-0.1-0.1-0.4-0.4-0.6-0.4c-0.1,0-0.1,0-0.2,0.1c-0.1,0-0.1-0.2-0.1-0.3c0.6-0.2,1.1-0.4,1.3-0.5c0.1,0,0.1,0.2,0.1,0.3
				c0,0,0,0-0.1,0c-0.2,0.1-0.1,0.3,0.1,0.4c0.2,0.2,0.2,0.2,0.3,0.3c0.1-0.1,0.9-0.4,1.1-0.5c0-0.1,0-0.1,0-0.3
				c0-0.3,0-0.4-0.3-0.4c-0.1,0-0.1,0-0.1,0C77.6,63.3,77.5,63.2,77.5,63.1 M78.1,65.7l0-1.4l-0.9,0.4L78.1,65.7 M54.1,61.7
				c0.2,0.1,0.6,0.4,1,0.6c0,0.1,0,0.2-0.1,0.2c0,0-0.1,0-0.1-0.1c-0.2,0-0.3-0.1-0.7,0.2c-0.4,0.3-2,1.4-2.1,1.5
				c-0.1,0-0.4-0.1-0.4-0.1c0,0,0,0,0-0.1c0-0.1,0.5-2.4,0.6-2.7c0-0.1,0.1-0.5-0.1-0.7c-0.1,0-0.1-0.1-0.1-0.1
				c0-0.1,0.1-0.2,0.2-0.2c0.5,0.4,0.9,0.7,1.1,0.8c0,0.1-0.1,0.2-0.2,0.2c0,0,0,0-0.1-0.1c-0.2-0.1-0.3,0.1-0.3,0.3
				c-0.1,0.2-0.1,0.2-0.1,0.4c0.1,0.1,0.9,0.6,1,0.6c0.1,0,0.1-0.1,0.3-0.2c0.3-0.2,0.3-0.3,0.1-0.4c-0.1,0-0.1,0-0.1-0.1
				C53.9,61.8,53.9,61.7,54.1,61.7 M52.2,63.6l1.2-0.9l-0.8-0.5L52.2,63.6 M83.2,62.5c0,0.1,0.1,0.2,0.1,0.4c0,0.1,0,0.3-0.3,0.5
				c-0.1,0-0.2,0.1-0.4,0.2c0,0-0.8-1.3-1-1.6c-0.3-0.5-0.3-0.6-0.1-0.7c0,0,0.1-0.1,0.1-0.1c0-0.1-0.1-0.2-0.2-0.2
				c-0.4,0.3-0.9,0.6-1.3,0.8c0,0.1,0.1,0.2,0.1,0.2c0.1,0,0.1-0.1,0.2-0.1c0.3-0.1,0.4,0,0.6,0.4c0.1,0.2,0.1,0.2,1,1.6
				c-0.2,0.1-0.4,0.2-0.5,0.3c-0.3,0.1-0.4,0-0.5-0.1c-0.1-0.1-0.1-0.1-0.2-0.2c-0.1,0-0.2,0.1-0.2,0.2c0.1,0.1,0.4,0.6,0.5,0.8
				c1.1-0.6,1.7-1,2.7-1.7c0-0.1-0.3-0.7-0.3-0.8C83.3,62.4,83.2,62.5,83.2,62.5 M74.9,66.5c0,0.1,0,0.2,0,0.4
				c0,0.1-0.1,0.3-0.5,0.4c-0.1,0-0.2,0.1-0.4,0.1c0,0-0.4-1.5-0.5-1.9c-0.1-0.5-0.1-0.6,0.2-0.7c0,0,0.1,0,0.1,0
				c0-0.1,0-0.2-0.1-0.3c-0.4,0.1-1,0.2-1.5,0.3c0,0.1,0,0.2,0,0.3c0.1,0,0.1,0,0.2,0c0.3,0,0.3,0.1,0.5,0.6
				c0.1,0.3,0.1,0.2,0.4,1.9c-0.2,0.1-0.5,0.1-0.6,0.1c-0.3,0-0.4-0.2-0.5-0.2c0-0.1-0.1-0.2-0.1-0.2c-0.1,0-0.2,0-0.3,0.1
				c0,0.1,0.2,0.7,0.2,0.9c1.2-0.2,2-0.4,3.1-0.7c0-0.1,0-0.8,0-0.9C75.1,66.4,74.9,66.5,74.9,66.5 M92.1,34.3
				c0.1,0.3,0.2,1,0.2,1.3c0.1,0.1,0.2,0,0.3,0c0,0,0-0.1,0-0.2c0-0.2,0.1-0.3,0.6-0.4c0.3-0.1,1.4-0.3,1.6-0.3
				c-0.2,0.3-0.5,0.6-1,1.1c-0.5,0.6-1,1.2-1.4,1.7c0,0.1,0.1,0.2,0.1,0.2c0.2,0,1.9-0.1,2.3-0.2c0.5,0,0.6,0,0.7,0.2
				c0,0,0,0.1,0,0.1c0.1,0.1,0.2,0.1,0.3,0c0-0.3-0.1-0.9-0.1-1.3c-0.1-0.1-0.2,0-0.3,0c0,0.1,0,0.1,0,0.2c0,0.3-0.1,0.4-0.6,0.4
				c-0.2,0-1.2,0.1-1.4,0.1c0.1-0.1,0.4-0.5,0.9-1.1c0.5-0.5,0.8-0.9,0.9-1c0.1-0.1,0.2-0.2,0.3-0.2c0-0.1,0-0.1-0.1-0.1
				c0-0.3-0.1-0.8-0.2-1c-0.1,0-0.2,0-0.3,0.1c0,0.1,0,0.1,0,0.2c0,0.3-0.2,0.3-0.6,0.4c-0.4,0.1-0.9,0.2-1.3,0.2
				c-0.5,0.1-0.7,0-0.7-0.2c0,0,0-0.1,0-0.2C92.3,34.1,92.2,34.2,92.1,34.3 M58.3,63.7c-0.1,0-0.1,0.2-0.1,0.3c0.1,0,0.1,0,0.2,0.1
				c0.2,0.1,0.2,0.3,0.1,0.7c0,0.1-0.1,0.3-0.2,0.5c0,0-0.5-0.2-0.8-0.3c-0.4-0.1-0.8-0.3-0.8-0.3c0.1-0.2,0.2-0.4,0.2-0.5
				c0.2-0.5,0.3-0.6,0.6-0.5c0,0,0.1,0,0.1,0c0.1,0,0.1-0.2,0.1-0.3c-0.5-0.2-1-0.4-1.4-0.6c-0.1,0-0.2,0.2-0.1,0.3
				c0.1,0,0.1,0.1,0.1,0.1c0.2,0.2,0.2,0.3,0,0.7c-0.1,0.2-0.4,0.8-0.6,1.2c-0.1,0.3-0.3,0.6-0.6,0.5c0,0-0.1,0-0.1-0.1
				c-0.1,0-0.1,0.2-0.1,0.3c0.3,0.2,0.9,0.4,1.5,0.6c0.1,0,0.1-0.2,0.1-0.3c0,0-0.1,0-0.1-0.1c-0.3-0.1-0.2-0.4-0.1-0.7
				c0-0.1,0.1-0.3,0.2-0.5c0,0,0.5,0.2,0.8,0.3c0.3,0.1,0.8,0.3,0.8,0.3c0,0.2-0.1,0.3-0.2,0.5c-0.1,0.3-0.2,0.6-0.6,0.5
				c0,0-0.1,0-0.1,0c-0.1,0.1-0.1,0.2-0.1,0.3c0.4,0.1,1,0.4,1.5,0.5c0.1,0,0.1-0.2,0.1-0.3c0,0-0.1,0-0.1,0
				c-0.3-0.1-0.2-0.4-0.1-0.7c0.1-0.2,0.3-0.9,0.4-1.3c0.2-0.5,0.2-0.6,0.5-0.5c0,0,0.1,0,0.1,0c0.1,0,0.1-0.2,0.1-0.3
				C59.3,64.1,58.8,63.9,58.3,63.7 M91.5,47.4c-0.2,0.8-0.6,1.8-0.9,2.5c0.1,0.1,0.7,0.5,0.8,0.5c0.1,0,0.2-0.2,0.2-0.3
				c0,0-0.1-0.1-0.2-0.1c-0.2-0.2-0.3-0.4-0.2-0.7c0-0.1,0.1-0.2,0.1-0.3c0.1-0.3,0.2-0.5,0.7-0.3c0.1,0,0.6,0.2,0.6,0.2
				c0,0-0.3,0.9-0.3,0.9c0.1,0.1,0.2,0.1,0.3,0.1c0,0,0.1-0.2,0.3-0.9c0.1,0,0.8,0.3,0.9,0.3c0.1,0,0.1,0.1,0.1,0.2
				c0,0.1-0.2,0.5-0.3,0.8c-0.1,0.3-0.3,0.3-0.5,0.3c-0.1,0-0.2,0-0.3,0c-0.1,0.1-0.1,0.2-0.1,0.3c0.2,0.1,0.6,0.2,0.8,0.3
				c0.4-1,0.8-2,1-2.7c0-0.1-0.2-0.1-0.3-0.1c0,0,0,0.1,0,0.1c-0.1,0.3-0.4,0.2-0.7,0.1c-0.3-0.1-0.8-0.3-1.3-0.4
				c-0.6-0.2-0.6-0.3-0.5-0.6c0,0,0-0.1,0-0.1C91.7,47.4,91.6,47.4,91.5,47.4 M43.5,49.4c-0.3-0.8-0.7-1.8-0.9-2.5
				c-0.2,0-0.8,0.1-0.9,0.1c-0.1,0.1,0,0.3,0,0.3c0,0,0.1,0,0.2,0c0.3,0,0.5,0.1,0.6,0.4c0,0.1,0.1,0.2,0.1,0.3
				c0.1,0.4,0.1,0.5-0.3,0.6c-0.1,0-0.6,0.2-0.6,0.2c0,0-0.3-0.9-0.3-0.9c-0.1,0-0.2,0-0.3,0.1c0,0,0,0.2,0.3,0.9
				c-0.1,0-0.8,0.3-0.9,0.3c-0.1,0-0.1,0-0.2-0.1c-0.1-0.1-0.2-0.5-0.3-0.8c-0.1-0.3,0.1-0.4,0.2-0.5c0.1-0.1,0.2-0.1,0.2-0.2
				c0-0.1,0-0.2-0.1-0.3c-0.2,0.1-0.6,0.2-0.8,0.3c0.3,1.1,0.7,2.1,0.9,2.7c0.1,0,0.2,0,0.3-0.1c0,0,0-0.1,0-0.1
				c-0.1-0.3,0.1-0.4,0.5-0.5c0.3-0.1,0.8-0.3,1.2-0.5c0.6-0.2,0.7-0.1,0.8,0.1c0,0,0,0,0.1,0.1C43.3,49.5,43.5,49.5,43.5,49.4
				 M48,56.7c-0.2-0.2-0.6-0.7-0.8-1c-0.1,0-0.2,0.1-0.2,0.2c0,0,0,0.1,0.1,0.1c0.1,0.2,0.1,0.3-0.3,0.7c-0.3,0.2-1.1,0.9-1.3,1.1
				c0.1-0.3,0.2-0.8,0.3-1.5c0.1-0.7,0.3-1.5,0.4-2.1C46.1,54,46,54,46,54c-0.1,0.1-1.6,1.1-1.9,1.3c-0.5,0.3-0.5,0.3-0.7,0.1
				c0,0-0.1-0.1-0.1-0.1c-0.1,0-0.2,0.1-0.2,0.2c0.2,0.3,0.5,0.7,0.8,1.1c0.1,0,0.2-0.1,0.2-0.2c0,0-0.1-0.1-0.1-0.1
				c-0.2-0.3-0.1-0.4,0.3-0.7c0.2-0.1,1-0.6,1.2-0.8c0,0.2-0.1,0.6-0.2,1.4c-0.2,0.7-0.3,1.2-0.3,1.4c0,0.2-0.1,0.2-0.1,0.3
				c0,0,0.1,0.1,0.1,0.1c0.2,0.2,0.5,0.6,0.6,0.8c0.1,0,0.2-0.1,0.2-0.2c0-0.1-0.1-0.1-0.1-0.1c-0.2-0.3,0-0.4,0.3-0.6
				c0.3-0.2,0.7-0.6,1-0.9c0.4-0.3,0.6-0.4,0.7-0.2c0,0,0.1,0.1,0.1,0.1C47.9,56.8,48,56.8,48,56.7 M42.2,45.2
				c-0.1-0.3-0.2-1-0.2-1.3c-0.1-0.1-0.2,0-0.3,0c0,0,0,0.1,0,0.2c0,0.2-0.1,0.3-0.6,0.4c-0.3,0.1-1.4,0.3-1.6,0.3
				c0.2-0.3,0.5-0.6,1-1.1c0.5-0.6,1-1.2,1.4-1.7c0-0.1-0.1-0.2-0.1-0.2c-0.2,0-1.9,0.1-2.3,0.2c-0.6,0-0.6,0-0.7-0.2
				c0,0,0-0.1,0-0.1c-0.1-0.1-0.2-0.1-0.3,0c0,0.3,0.1,0.9,0.1,1.3c0.1,0.1,0.2,0,0.3,0c0-0.1,0-0.1,0-0.2c0-0.3,0.1-0.4,0.6-0.4
				c0.2,0,1.2-0.1,1.4-0.1c-0.1,0.1-0.4,0.5-0.9,1.1c-0.5,0.5-0.8,0.9-0.9,1.1c-0.1,0.1-0.2,0.2-0.2,0.2c0,0.1,0,0.1,0,0.1
				c0,0.3,0.1,0.8,0.2,1c0.1,0,0.2,0,0.3-0.1c0-0.1,0-0.1,0-0.2c0-0.3,0.2-0.3,0.6-0.4c0.4-0.1,0.9-0.2,1.3-0.3
				c0.5-0.1,0.7,0,0.7,0.2c0,0,0,0.1,0,0.2C42,45.4,42.1,45.3,42.2,45.2 M49.5,58.6c0,0,0.1,0.1,0.1,0.1c0.2,0.2,0.3,0.4,0,0.7
				c-0.1,0.1-0.3,0.3-0.4,0.4c-0.3-0.2-0.4-0.4-0.7-0.6c-0.1,0-0.2,0.1-0.2,0.2c0.3,0.2,0.4,0.4,0.7,0.6c-0.1,0.1-0.6,0.7-0.7,0.8
				c-0.1,0.1-0.1,0.1-0.2,0c-0.1-0.1-0.3-0.2-0.5-0.5c-0.3-0.4,0-0.9,0.1-1.1c0-0.1-0.1-0.2-0.3-0.2c-0.2,0.2-0.5,0.7-0.7,0.9
				c0.9,0.9,1.4,1.4,2.1,1.9c0.1,0,0.2-0.1,0.2-0.2c0,0,0,0-0.1-0.1c-0.2-0.2-0.1-0.4,0.2-0.7c0.2-0.2,0.5-0.6,0.9-1
				c0.4-0.5,0.5-0.4,0.7-0.3c0,0,0,0,0.1,0.1c0.1,0,0.2-0.1,0.2-0.2c-0.4-0.3-0.9-0.7-1.2-1.1C49.6,58.4,49.6,58.5,49.5,58.6
				 M36.4,32.1c0.3-1.3,0.8-2.9,1.3-4c-0.2-0.2-1.2-0.7-1.3-0.8c-0.2,0.1-0.3,0.3-0.3,0.4c0.1,0,0.1,0.1,0.3,0.2
				c0.4,0.3,0.5,0.6,0.4,1.1c0,0.1-0.1,0.3-0.2,0.5c-0.2,0.6-0.3,0.7-1,0.5c-0.1,0-1-0.3-1-0.3c0,0,0.5-1.4,0.5-1.4
				c-0.1-0.1-0.3-0.2-0.5-0.2c0,0-0.1,0.3-0.5,1.4c-0.2,0-1.3-0.4-1.4-0.4c-0.1-0.1-0.2-0.1-0.2-0.3c0.1-0.2,0.2-0.8,0.4-1.2
				c0.2-0.4,0.5-0.5,0.7-0.5c0.2,0,0.4,0,0.5,0c0.1-0.1,0.2-0.3,0.1-0.5c-0.3-0.1-1-0.3-1.4-0.3c-0.6,1.6-1.2,3.3-1.4,4.4
				c0.1,0.1,0.3,0.2,0.4,0.1c0-0.1,0-0.1,0.1-0.2c0.2-0.5,0.5-0.4,1.1-0.2c0.5,0.2,1.4,0.4,2,0.6c0.9,0.2,1,0.5,0.9,0.9
				c0,0.1,0,0.1,0,0.2C36.1,32.1,36.3,32.2,36.4,32.1 M51.5,12.4c0.7-0.4,1.4-1.1,1.5-1.2c-0.2-0.4-0.4-1-0.6-1.4
				c-0.1,0-0.4,0.1-0.4,0.2c0.1,0.2,0.2,0.6,0.1,0.9c-0.1,0.4-0.4,0.8-0.8,1.1c-0.4,0.2-1.7,0.8-2.7-0.8c-1.1-1.6-0.1-2.7,0.4-3.1
				c0.5-0.3,1-0.3,1.3-0.2C50.7,8,50.9,8.2,51,8.3c0.1,0,0.3-0.2,0.4-0.3c-0.3-0.4-0.6-0.8-0.8-1.2c-0.2,0.1-1.2,0.4-1.9,0.8
				c-0.8,0.5-1.6,1.3-1.6,2.5c0,0.9,0.6,2,1.6,2.4C49.8,13.2,50.8,12.8,51.5,12.4 M55.9,4.7c0.8-0.3,1.3-0.4,2.1-0.6
				c0.9-0.2,2-0.5,3-0.6c0.2,0.4,0.4,1,0.5,1.3c0,0.1-0.2,0.3-0.5,0.2c-0.1-0.2-0.2-0.3-0.3-0.4c-0.1-0.1-0.3-0.4-0.9-0.3
				c-0.5,0.1-0.8,0.2-1,0.2c-0.1,0-0.2,0-0.2,0.2c0.1,0.3,0.5,1.3,0.6,1.5c0.3-0.1,1.2-0.3,1.4-0.3c0.1,0.2,0.2,0.4,0.2,0.5
				c-0.2,0-1.2,0.3-1.4,0.3c0.1,0.2,0.3,0.8,0.4,1.1c0.2,0.5,0.3,0.7,0.8,0.6c0.4-0.1,0.5-0.1,0.7-0.1C61.7,8,61.9,7.8,62,7.2
				c0-0.1,0-0.2,0-0.3c0.1-0.1,0.4-0.2,0.5,0c0,0.2,0.1,0.9,0.1,1.6c-1.7,0.3-2.7,0.5-4.1,0.9c-0.1,0-0.2-0.3-0.1-0.4
				c0.1,0,0.3-0.1,0.3-0.1c0.1-0.1,0.3-0.2,0.2-0.6c-0.1-0.3-0.3-0.9-0.3-0.9c-0.2,0-1.5,0.4-1.7,0.5c0,0.2-0.1,0.9-0.1,1.2
				c0,0.2,0.1,0.4,0.2,0.4c0.1,0,0.2,0,0.3-0.1c0.2,0.1,0.2,0.3,0.1,0.4c-0.7,0.2-1.4,0.5-1.8,0.6c-0.1,0-0.3-0.3-0.2-0.4
				c0.1,0,0.2-0.1,0.3-0.1c0.1-0.1,0.3-0.1,0.4-0.6c0.1-0.5,0.4-3.3,0.4-3.4c0-0.3,0-0.4-0.1-0.5C56.4,5,56.2,5,56,5.1
				C55.9,5,55.8,4.8,55.9,4.7 M57.5,4.7c-0.1,0-0.2,0.1-0.2,0.2c0,0.2-0.2,1.7-0.3,2.2c0.2,0,1.1-0.3,1.4-0.4
				c-0.1-0.3-0.6-1.6-0.7-1.8C57.7,4.8,57.6,4.7,57.5,4.7 M44.6,17.5c0.5-0.5,1.1-1.1,1.9-1.7c0-0.1-0.2-0.3-0.3-0.3
				c-0.1,0.1-0.2,0.1-0.2,0.2c-0.4,0.2-0.6,0.1-1.1-0.4c-0.3-0.3-0.9-1-1.4-1.6c-0.4-0.4-0.6-0.8-0.3-1.2c0,0,0.1-0.1,0.2-0.2
				c0-0.1-0.2-0.3-0.3-0.3c-0.5,0.5-1.3,1.2-2,1.8c0,0.1,0.2,0.3,0.3,0.3c0.1-0.1,0.1-0.1,0.2-0.2c0.4-0.4,0.8,0.1,1.1,0.4
				c0.3,0.3,1.1,1.1,1.5,1.5c0.6,0.7,0.6,0.8,0.4,1.2c0,0.1-0.1,0.1-0.2,0.2C44.3,17.3,44.5,17.5,44.6,17.5 M35.4,22
				C35.2,22,35,21.9,35,21.7c0.5-1,0.9-1.5,1.2-2c0.7-1,2.1-2.9,4.2-1.3c1.6,1.2,1,2.8,0.3,3.9l-0.7,1.1l-0.6,1
				c-0.2,0.1-0.3,0-0.4-0.2l0.1-0.2c0.2-0.4,0.2-0.5-0.5-0.8l-2.1-1.2c-0.7-0.4-0.9-0.3-1-0.2C35.5,21.8,35.4,21.9,35.4,22
				 M36.5,20.3c-0.1,0.2,0,0.3,0.1,0.3c0.1,0,2.5,1.6,2.5,1.6c0.3,0.2,0.6,0.3,0.8,0.3c0.2,0,0.3-0.2,0.5-0.5
				c0.2-0.4,0.3-0.8,0.3-1.1c0-0.6-0.2-1.1-1.1-1.7c-1.1-0.7-2.2-0.3-2.9,0.8C36.6,20.1,36.5,20.2,36.5,20.3 M35.1,40.6l0,0.3
				c0,0.5-0.5,0.4-1.1,0.4c-0.5,0-2-0.1-2.7-0.1c0.3-0.1,2.1-0.9,2.8-1.2c0.7-0.3,1.2-0.5,1.4-0.6c0.1-0.1,0.1-0.2,0-0.3
				c-0.3-0.1-0.5-0.2-1.3-0.7c-0.8-0.4-2.3-1.1-2.8-1.4c0.4,0,2.1,0,2.9,0c0.8,0,0.8,0.2,0.9,0.4c0,0,0,0.1,0,0.2
				c0.1,0.1,0.3,0.1,0.4,0c0-0.7,0.1-1,0.2-2.3c-0.1-0.1-0.3-0.1-0.4-0.1c0,0.1,0,0.1-0.1,0.3c-0.1,0.4-0.4,0.4-1.1,0.4
				c-0.6,0-1.7,0-2.5,0c-0.7,0-0.7-0.2-0.7-0.5c0-0.1,0-0.1,0-0.2c-0.1-0.1-0.3-0.2-0.4-0.1c-0.1,0.6-0.2,1.4-0.2,2
				c0.4,0.1,0.8,0.3,1.1,0.4c0.1,0.1,2.2,1.1,2.6,1.3c-0.7,0.4-2.2,1-2.8,1.3c-0.4,0.2-0.7,0.3-1,0.2c0,0.8,0,1.3,0.1,2
				c0.1,0.1,0.3,0.1,0.4,0c0-0.1,0-0.1,0-0.2c0-0.6,0.5-0.5,1-0.5c0.3,0,1.8,0.1,2.3,0.2c0.8,0.1,0.9,0.3,0.9,0.6c0,0.1,0,0.1,0,0.2
				c0.2,0.1,0.4,0.1,0.4-0.1c-0.1-0.7-0.1-1.2-0.1-2C35.4,40.5,35.2,40.5,35.1,40.6 M98.4,34.9c0.7,0.1,1.2,0.1,1.6,0.1
				c0.2-0.2,0.1-0.4,0-0.4c-0.1,0-0.3,0-0.4-0.1c-0.1,0-0.5-0.1-0.6-0.3c-0.2-0.2-0.3-0.5-0.3-0.7c0-0.2-0.1-0.5-0.1-0.5
				c0-0.5,0.1-0.5,0.9-0.7c0.6-0.2,1.4-0.3,2.1-0.5c0.5-0.1,1-0.3,1.1,0.3c0,0,0,0.1,0.1,0.2c0.1,0.1,0.4,0,0.4-0.1
				c-0.1-0.6-0.3-1.5-0.6-2.4c-0.1-0.1-0.4,0-0.4,0.1c0,0.1,0,0.1,0,0.2c0.1,0.6-0.5,0.6-0.9,0.7c-0.4,0.1-1.5,0.4-2.1,0.5
				c-0.8,0.2-1,0.2-1.2-0.2c0-0.1,0-0.1-0.1-0.2c-0.1,0-0.3,0-0.4,0.1C97.7,31.5,98.2,33.3,98.4,34.9 M88.6,15.4
				c0.1-0.1,0.1-0.2,0.3-0.4c0.3-0.4,0.4-0.3,0.6-0.2c0.1,0,0.1,0.1,0.2,0.1c0.1,0,0.3-0.3,0.3-0.4c-0.5-0.3-1.2-0.9-1.8-1.4
				c-0.2,0-0.3,0.2-0.3,0.3c0.1,0.1,0.2,0.2,0.3,0.3c0.3,0.3,0.2,0.3,0,0.7c-0.1,0.2-0.2,0.2-0.3,0.3c-0.2,0.2-0.4,0.3-0.7,0.1
				c-0.1-0.1-0.2-0.1-0.4-0.3c-0.3-0.3-1.2-1.2-0.2-2.8c1.1-1.6,2.5-1.2,3-0.8c0.5,0.4,0.6,0.7,0.7,1.1c0,0.4-0.1,0.7-0.2,0.9
				c0,0.1,0.3,0.2,0.4,0.2c0.3-0.5,0.5-0.8,0.8-1.2c-0.1-0.2-0.4-0.6-1.4-1.3c-0.8-0.6-1.9-1.1-3-0.6c-0.9,0.3-1.6,1.3-1.7,2.4
				c-0.1,1.3,0.6,2,1.3,2.5c0.7,0.6,1.4,0.9,1.8,1.1C88.4,15.7,88.5,15.6,88.6,15.4 M72.1,71.9c0.8,1.5,1,1.7,1.6,2.9
				c0.2,0.4,0.3,0.6-0.1,0.7c-0.1,0-0.2,0-0.2,0.1c-0.1,0.1,0,0.4,0.1,0.4c0.8-0.1,1.6-0.3,2.4-0.5c0.1-0.1,0-0.4-0.1-0.4
				c-0.1,0-0.2,0-0.3,0c-0.4,0-0.6-0.1-0.9-0.7c-0.2-0.3-2-3.7-2.1-3.7c0-0.1-0.1-0.1-0.2,0c0,0-0.5,0.3-0.7,0.4
				c-0.3,1.3-0.8,3.2-1,4c-0.2,0.8-0.4,0.9-0.6,0.9c-0.1,0-0.2,0-0.3,0c-0.1,0.1-0.1,0.4,0,0.4c0.6,0,1.5-0.1,2-0.2
				c0.1-0.1,0.1-0.4,0-0.4c-0.1,0-0.2,0-0.2,0c-0.3,0-0.5,0-0.3-0.7C71.5,74.1,71.8,72.9,72.1,71.9 M99.6,40
				c1.6-0.6,1.8-0.7,3.1-1.1c0.5-0.2,0.7-0.2,0.7,0.2c0,0.1,0,0.2,0,0.2c0.1,0.1,0.4,0.1,0.4,0c0-0.8,0-1.6-0.1-2.5
				c-0.1-0.1-0.4,0-0.4,0c0,0.1,0,0.2,0,0.3c-0.1,0.4-0.2,0.5-0.8,0.8c-0.3,0.1-4,1.5-4,1.5c-0.1,0-0.1,0.1-0.1,0.2
				c0,0,0.2,0.5,0.3,0.8c1.3,0.5,3.1,1.3,3.8,1.6c0.7,0.3,0.8,0.5,0.8,0.7c0,0.1,0,0.2,0,0.3c0.1,0.1,0.3,0.2,0.4,0
				c0.1-0.6,0.1-1.5,0.1-2c-0.1-0.1-0.3-0.1-0.4,0c0,0.1,0,0.2,0,0.2c0,0.3-0.1,0.4-0.7,0.2C101.8,40.9,100.6,40.4,99.6,40 M62.4,71
				c-0.3,0.6-0.4,1.1-0.5,1.5c0.1,0.2,0.3,0.2,0.4,0.1c0-0.1,0.1-0.3,0.2-0.4c0.1-0.1,0.3-0.4,0.5-0.5c0.2-0.1,0.6-0.1,0.8-0.1
				c0.2,0,0.5,0.1,0.5,0.1c0.4,0.1,0.4,0.3,0.4,1c0,0.6-0.1,1.4-0.1,2.1c0,0.5-0.1,1-0.6,1h-0.2c-0.1,0.1-0.1,0.4,0,0.4
				c0.6,0.1,1.5,0.1,2.5,0.2c0.1-0.1,0.1-0.3,0-0.4c-0.1,0-0.1,0-0.2,0c-0.6-0.1-0.5-0.6-0.4-1.1c0-0.4,0.1-1.6,0.1-2.2
				c0.1-0.9,0.1-1,0.6-1c0.1,0,0.1,0,0.2,0c0.1-0.1,0.1-0.3,0-0.4C65.8,71.3,64,71.2,62.4,71 M98.4,47.1l0.1-0.3
				c0.1-0.4,0.6-0.3,1.1-0.1c0.5,0.1,1.9,0.6,2.5,0.8c-0.4,0-2.3,0.3-3,0.4c-0.8,0.1-1.3,0.2-1.5,0.2c-0.1,0.1-0.1,0.2-0.1,0.3
				c0.2,0.2,0.5,0.4,1.1,1c0.6,0.6,1.9,1.7,2.3,2.1c-0.4-0.1-2.1-0.5-2.8-0.7c-0.8-0.2-0.8-0.4-0.7-0.6c0,0,0-0.1,0.1-0.2
				c-0.1-0.1-0.3-0.2-0.4-0.1c-0.2,0.6-0.3,1-0.8,2.1c0,0.1,0.3,0.2,0.4,0.2c0.1-0.1,0.1-0.1,0.1-0.3c0.2-0.3,0.5-0.2,1.2-0.1
				c0.6,0.1,1.7,0.4,2.4,0.7c0.6,0.2,0.6,0.4,0.5,0.7c0,0.1,0,0.1-0.1,0.2c0.1,0.2,0.3,0.2,0.4,0.2c0.2-0.6,0.5-1.3,0.7-1.8
				c-0.3-0.2-0.7-0.4-0.9-0.7c-0.1-0.1-1.9-1.6-2.2-1.9c0.7-0.2,2.4-0.4,3-0.5c0.5-0.1,0.8-0.1,1,0c0.2-0.7,0.3-1.2,0.4-1.9
				c-0.1-0.1-0.3-0.2-0.4-0.1c0,0.1,0,0.1-0.1,0.2c-0.1,0.6-0.6,0.4-1.1,0.3c-0.3-0.1-1.7-0.6-2.2-0.8c-0.8-0.3-0.8-0.5-0.8-0.8
				c0-0.1,0-0.1,0-0.2c-0.1-0.2-0.3-0.2-0.4-0.1c-0.1,0.7-0.2,1.1-0.4,2C98,47.1,98.2,47.2,98.4,47.1 M68,5.4c0-0.5-0.4-0.8-0.8-0.8
				c-0.5,0-0.8,0.4-0.8,0.8c0,0.5,0.4,0.8,0.8,0.8C67.6,6.3,68,5.9,68,5.4 M58.7,74c-0.1,0.1-0.2,0.3-0.4,0.5
				c-0.2,0.1-0.4,0.3-0.9,0.1c-0.1,0-0.4-0.1-0.7-0.2c0,0,0.7-2.4,0.9-2.9c0.3-0.8,0.4-0.9,0.8-0.9c0.1,0,0.1,0,0.2,0
				c0.1-0.1,0.1-0.3,0.1-0.4c-0.7-0.2-1.6-0.5-2.4-0.7c-0.1,0.1-0.2,0.3-0.2,0.4c0.1,0,0.2,0.1,0.2,0.1c0.4,0.2,0.4,0.4,0.2,1.2
				c-0.1,0.4-0.1,0.4-1,2.9c-0.4-0.1-0.7-0.2-0.9-0.3c-0.4-0.2-0.4-0.6-0.4-0.7c0-0.1,0-0.3,0.1-0.4c-0.1-0.1-0.4-0.2-0.4-0.1
				c-0.1,0.2-0.3,1.2-0.4,1.4c1.9,0.7,3,1.1,4.8,1.5c0-0.1,0.6-1.1,0.7-1.2C59,74.1,58.8,74,58.7,74 M44.1,66.5
				c-0.1,0.1-0.3,0.2-0.5,0.3c-0.2,0-0.5,0-0.9-0.3c-0.1-0.1-0.3-0.3-0.5-0.5c0,0,1.7-1.8,2.1-2.2c0.6-0.6,0.8-0.7,1.1-0.4
				c0,0,0.1,0.1,0.2,0.1c0.1,0,0.3-0.2,0.3-0.3c-0.5-0.5-1.2-1.2-1.8-1.7c-0.1,0-0.3,0.2-0.3,0.3c0.1,0.1,0.1,0.2,0.2,0.2
				c0.3,0.4,0.1,0.6-0.4,1.1c-0.3,0.3-0.3,0.3-2.2,2.2c-0.3-0.3-0.5-0.6-0.7-0.7c-0.3-0.4-0.1-0.7-0.1-0.8c0.1-0.1,0.1-0.2,0.2-0.4
				c0-0.2-0.2-0.3-0.3-0.3c-0.2,0.2-0.8,0.9-1,1.1c1.4,1.6,2.2,2.3,3.6,3.6c0.1,0,1.1-0.7,1.2-0.8C44.4,66.7,44.2,66.5,44.1,66.5
				 M91.8,60.3c0.1-0.1,0.1-0.1,0.2-0.2c0.3-0.3,0.5-0.5,1.1,0c0.1,0.1,0.6,0.5,0.7,0.6c-0.4,0.5-0.6,0.7-0.9,1.1
				c0.1,0.2,0.2,0.3,0.4,0.4c0.4-0.4,0.5-0.6,0.9-1.1c0.1,0.1,1.2,0.9,1.3,1c0.1,0.1,0.2,0.2,0,0.4c-0.1,0.2-0.3,0.5-0.7,0.8
				c-0.6,0.6-1.5,0-1.7-0.1c-0.2,0.1-0.3,0.2-0.3,0.4c0.4,0.3,1.1,0.8,1.5,1c1.3-1.5,2-2.4,2.8-3.5c0-0.1-0.2-0.3-0.3-0.3
				c0,0-0.1,0.1-0.1,0.1c-0.4,0.4-0.7,0.2-1.2-0.2c-0.3-0.2-1-0.8-1.7-1.3c-0.8-0.6-0.7-0.7-0.5-1.1c0-0.1,0-0.1,0.1-0.1
				c-0.1-0.1-0.3-0.3-0.4-0.3c-0.5,0.7-1.1,1.5-1.6,2.1C91.5,60.1,91.6,60.2,91.8,60.3 M79,10.4c0.7,0.3,1.4,0.6,2.3,1.1
				c0.1,0,0.2-0.3,0.2-0.4c-0.1-0.1-0.2-0.1-0.2-0.1c-0.4-0.3-0.3-0.5,0-1.2c0.2-0.4,0.6-1.2,0.9-1.9c0.2-0.5,0.4-0.9,1-0.7
				c0,0,0.1,0,0.2,0.1c0.1,0,0.3-0.3,0.2-0.4C82.9,6.4,82,6,81.1,5.6c-0.1,0-0.2,0.3-0.2,0.4c0.1,0,0.1,0.1,0.2,0.1
				c0.5,0.3,0.2,0.7,0,1.2c-0.2,0.4-0.6,1.4-0.8,2c-0.4,0.8-0.5,0.9-0.9,0.8c-0.1,0-0.2,0-0.3-0.1C79.1,10,79,10.2,79,10.4
				 M41.5,58.2c-0.4-0.6-0.9-1.3-1.4-2.1c-0.1,0-0.4,0.1-0.4,0.2c0.1,0.1,0.1,0.2,0.1,0.3c0.2,0.4,0,0.6-0.6,1
				c-0.4,0.2-1.1,0.7-1.8,1.1c-0.5,0.3-0.9,0.5-1.2,0.1c0,0-0.1-0.1-0.1-0.2c-0.1,0-0.4,0.1-0.4,0.2c0.4,0.6,0.9,1.5,1.5,2.2
				c0.1,0,0.3-0.1,0.3-0.3c0-0.1-0.1-0.1-0.1-0.2c-0.3-0.5,0.2-0.7,0.6-1c0.4-0.3,1.3-0.9,1.7-1.2c0.8-0.5,0.9-0.5,1.2-0.1
				c0.1,0.1,0.1,0.1,0.2,0.2C41.2,58.4,41.4,58.3,41.5,58.2 M96.4,27.7c0.7-0.1,1.2-0.2,1.6-0.3c0.1-0.2,0-0.4-0.1-0.4
				c-0.1,0-0.3,0-0.4,0.1c-0.1,0-0.5,0-0.7-0.2c-0.2-0.2-0.4-0.4-0.5-0.6c-0.1-0.2-0.2-0.4-0.2-0.5c-0.1-0.4,0-0.5,0.7-0.9
				c0.6-0.3,1.2-0.6,1.9-1c0.4-0.2,0.9-0.5,1.2,0c0,0,0,0.1,0.1,0.2c0.2,0,0.4-0.1,0.4-0.2c-0.3-0.5-0.7-1.4-1.2-2.2
				c-0.1,0-0.3,0.1-0.4,0.2c0,0.1,0.1,0.1,0.1,0.2c0.2,0.5-0.3,0.7-0.7,0.9c-0.3,0.2-1.4,0.7-1.9,1c-0.8,0.4-0.9,0.4-1.2,0.1
				c0,0-0.1-0.1-0.1-0.2c-0.1,0-0.3,0.1-0.4,0.2C95,24.6,95.8,26.2,96.4,27.7 M90.8,18.7c0-0.1,0.2-0.3,0.3-0.3
				c0.1,0.1,0.1,0.1,0.2,0.2c0.4,0.3,0.5,0.3,1.2-0.3c0.5-0.4,1.3-1.1,1.6-1.4c0.3-0.3,0.8-0.6,0.5-1.1c-0.1-0.1-0.1-0.1-0.1-0.2
				c0-0.1,0.2-0.3,0.3-0.3c0.6,0.7,1.3,1.5,1.7,2.1c0,0.1-0.2,0.3-0.3,0.3c-0.1-0.1-0.1-0.1-0.2-0.2c-0.4-0.4-0.7-0.1-1.2,0.2
				c-0.6,0.5-1.3,1.1-1.7,1.3c-0.6,0.5-0.7,0.6-0.5,1.1c0,0.1,0.1,0.1,0.2,0.2c0,0.1-0.2,0.3-0.4,0.3C91.8,19.9,91.3,19.3,90.8,18.7
				 M79.4,68.7c-0.8,0.3-1.6,0.8-1.7,0.9c0.1,0.5,0.2,0.9,0.4,1.4c0.1,0.1,0.4,0,0.5-0.1c0-0.2-0.1-0.5,0-0.8c0.2-0.4,0.6-0.7,1-0.9
				c0.4-0.2,1.8-0.5,2.5,1.2c0.8,1.8-0.3,2.7-1,2.9c-0.6,0.2-1.1,0.1-1.4,0c-0.3-0.2-0.4-0.4-0.6-0.6c-0.1,0-0.4,0.1-0.4,0.2
				c0.2,0.4,0.5,0.8,0.6,1.3c0.2,0,1.2-0.2,2-0.5c0.9-0.4,1.7-1,1.9-2.2c0.2-0.9-0.2-2-1.1-2.7C81.3,68.2,80.2,68.4,79.4,68.7
				 M72.3,8.3c0,0,0.5,0.4,1.6,0.7c1.1,0.3,2-0.3,2.2-1.1c0.2-1-0.5-1.5-1.1-2c-0.7-0.5-1-0.8-0.9-1.2c0-0.3,0.3-0.8,1.2-0.5
				c0.9,0.3,0.8,1.1,0.8,1.2c0.2,0.1,0.3,0.2,0.5,0.1c0.1-0.3,0.2-1.1,0.1-1.2c-0.2-0.1-0.6-0.3-1.4-0.5C73.5,3.3,73.1,4.4,73,5
				c0,0.5,0.2,0.9,1.2,1.6c0.7,0.5,1,0.9,0.8,1.4c-0.1,0.4-0.5,0.7-1.1,0.5C72.9,8.3,73,7.6,73,7c-0.1-0.1-0.4-0.1-0.5-0.1
				C72.4,7.2,72.3,7.8,72.3,8.3 M38.2,52.9c0,0,0.1-0.6-0.3-1.7c-0.4-1.1-1.3-1.6-2.2-1.2c-0.9,0.4-1,1.2-1,2
				c-0.1,0.8-0.1,1.2-0.5,1.4c-0.3,0.1-0.8,0.2-1.1-0.7c-0.3-0.9,0.4-1.3,0.5-1.3c0-0.2-0.1-0.3-0.2-0.4c-0.3,0.1-1,0.5-1.1,0.6
				c0,0.3,0.1,0.7,0.4,1.5c0.6,1.6,1.8,1.4,2.3,1.1c0.4-0.3,0.6-0.6,0.7-1.9c0-0.8,0.2-1.3,0.7-1.5c0.4-0.1,0.8,0,1,0.6
				c0.4,1-0.2,1.3-0.7,1.6c0,0.2,0.1,0.4,0.2,0.5C37.2,53.4,37.7,53.2,38.2,52.9 M51.6,67.3c-0.2,0-0.2,0.3-0.2,0.4
				c0.1,0,0.1,0,0.2,0.1c0.3,0.2,0.3,0.4-0.2,0.7c-0.3,0.2-0.3,0.3-0.4,0.3c-0.2-0.1-1.5-0.9-1.7-1c0-0.2,0-0.2,0.1-0.6
				c0.1-0.4,0.2-0.7,0.5-0.5c0.1,0,0.1,0.1,0.2,0.1c0.2,0,0.3-0.3,0.2-0.4c-0.3-0.2-1-0.7-1.9-1.3c-0.2,0-0.3,0.3-0.3,0.3
				c0.1,0.1,0.1,0.1,0.2,0.2c0.3,0.3,0.1,0.9,0.1,1.1c-0.1,0.4-0.8,4.2-0.9,4.3c0,0.1,0,0.1,0.1,0.1c0,0,0.7,0.2,0.8,0.2
				c0.2-0.2,2.7-2,3.3-2.5c0.7-0.5,0.8-0.5,1.1-0.4c0.1,0,0.2,0.1,0.2,0.1c0.1,0,0.3-0.3,0.2-0.4C52.7,67.9,51.8,67.4,51.6,67.3
				 M48.8,70.5C48.8,70.5,48.8,70.5,48.8,70.5C48.7,70.4,48.7,70.4,48.8,70.5l0.4-2.2l1.4,0.9L48.8,70.5 M87.3,64.1
				c0.2-0.1,0.9-0.8,1.4-1.2c0.1,0,0.3,0.2,0.3,0.3c0,0-0.1,0.1-0.2,0.2c-0.1,0.2-0.2,0.3,0,1.1c0.2,0.8,1.1,3.7,1.2,4
				c-0.1,0.1-0.4,0.7-0.5,0.7c0,0-0.1,0.1-0.1,0c-0.1,0-3.4-2.1-3.7-2.3c-0.2-0.1-0.7-0.5-1.1-0.3c-0.1,0.1-0.1,0.1-0.2,0.1
				c-0.1,0-0.3-0.2-0.2-0.4c0.9-0.6,1.6-1.1,1.9-1.3c0.1,0,0.3,0.2,0.3,0.3c0,0-0.1,0-0.2,0.1c-0.3,0.3-0.1,0.5,0.3,0.7
				c0.3,0.2,0.3,0.2,0.5,0.3c0.2-0.2,1.4-1.1,1.6-1.2c0-0.1-0.1-0.2-0.2-0.5c-0.2-0.5-0.3-0.6-0.6-0.4c-0.1,0.1-0.1,0.1-0.2,0.1
				C87.5,64.4,87.3,64.3,87.3,64.1 M89.3,67.8l-0.7-2.2l-1.3,1L89.3,67.8C89.2,67.9,89.3,67.9,89.3,67.8
				C89.3,67.9,89.3,67.8,89.3,67.8"/>
			<path class="st1" d="M76.7,44c0,2.3-1.8,3.8-9.2,5.2c-3,0.6-4,1.2-4,2.1c0,0.8,0.8,1.6,2.5,2l0.1,1.9c-3.3-0.6-5.4-2.2-5.4-4
				c0-1.6,0.9-2.9,6.6-4.1c5-1.1,6.4-1.6,6.2-3c-0.1-1.1-1.6-1.6-4.3-1.6l0.1-1.8C74.6,40.7,76.7,42.2,76.7,44 M72.8,57.7
				c0-2.1-1.7-3.3-4.2-3.8l-0.1,1.8c1.2,0.3,2.1,1.1,2.1,2.2c0,1.6-1.5,3.1-3.7,3.1c-3.1,0-4.1-1.6-4.5-2.4
				c-0.1-0.3-0.2-0.4-0.3-0.4c-0.1,0-0.2,0.2-0.2,0.5c0.2,1.9,2.6,3.7,5.5,3.7C70.5,62.2,72.8,60.2,72.8,57.7 M59.9,19.8
				c1.2-0.6,2.8-0.9,4-0.9c-0.3-0.3-3-0.2-5.3,0.8c-1,0.5-1.6,1-1.6,1.4c0,0.4,0.6,0.9,1.9,0.7C57.8,21.4,58.2,20.5,59.9,19.8
				 M65.6,14.5c-4.3-0.4-6.5,0.8-6.3,1.7c-1.4,0.5-2.5,1-2.5,1.8c0,0.4,0.4,0.9,1.2,1.1c1.5-0.6,3.5-1,5.2-1c1.5,0,2.2,0.3,2.2,0.8
				c0,0.4-0.7,0.7-2.2,0.7c-0.4,0-0.6,0-0.9-0.1c-0.7,0.2-1.2,0.4-1.5,0.6c0.4,0.2,1.3,0.3,2.1,0.3c2.6,0,3.6-0.4,5.1-1.3
				c0.6-0.4,1.4-0.7,1.9-0.7c5.1,0.6,7.8,2.8,7.8,5.5c0,3.3-3.8,5.8-10.5,8.8c-7.2,3.2-9.9,4.4-9.7,6.9c0.1,1.9,2.4,3.4,7.9,3.1
				l-0.1-2c-3.2,0-4.1-0.6-4.1-1.5c-0.1-1.2,2.1-2.1,5.1-3.3c12.3-4.8,15.6-7.7,15.6-12.1c0-4.6-4.1-6.9-10.6-8.1
				C68.5,15.3,68,14.7,65.6,14.5 M62.1,15.6c0.9-0.1,1.4,0,1.5,0.3c0.1,0.3-0.4,0.6-1.2,0.8c-0.9,0.1-1.4,0-1.5-0.3
				C60.8,16,61.2,15.7,62.1,15.6 M68.9,26c0.5-0.3,0.8-0.6,0.8-1c0-0.8-1.1-1.4-2.4-1.4c-1.3,0-2.4,0.6-2.4,1.4c0,0.4,0.3,0.8,0.8,1
				l0.2,6.5c0.5-0.2,2.2-1,2.9-1.3L68.9,26z M68.6,36.6c-0.7,0.3-2.5,1-2.6,1l0.3,9.1c0.3-0.1,1.5-0.3,1.8-0.4L68.6,36.6z
				 M66.5,50.4c0.3,7.9,0.4,8.4,0.8,9.1c0.4-0.7,0.5-1.3,0.8-9.4C67.9,50.1,66.9,50.3,66.5,50.4"/>
		</g>
	</g>
</g>
<g id="SAMF">
</g>
<g id="HUM">
</g>
<g id="JURA">
</g>
<g id="SCI">
</g>
<g id="KU">
</g>
</svg>
